Coordinates
version=1
nRows=8
nColumns=33
inDegrees=yes

Units are S.I. units (second, meters, Newtons, ...)
Angles are in degrees.

endheader
time	ground_thorax_rot_x	ground_thorax_rot_y	ground_thorax_rot_z	ground_thorax_tx	ground_thorax_ty	ground_thorax_tz	clav_prot_r	clav_elev_r	scapula_abduction_r	scapula_elevation_r	scapula_upward_rot_r	scapula_winging_r	shoulder_elv_r	plane_of_elev_r	axial_rot_r	elbow_flexion_r	pro_sup_r	wrist_flex_r	wrist_dev_r	clav_prot_l	clav_elev_l	scapula_abduction_l	scapula_elevation_l	scapula_upward_rot_l	scapula_winging_l	shoulder_elv_l	plane_of_elev_l	axial_rot_l	elbow_flexion_l	pro_sup_l	wrist_flex_l	wrist_dev_l
      8.19000000	     25.08883802	     34.24295432	     50.05230270	     73.96007672	    775.66655218	    -44.31622121	     13.43743873	     36.09161953	     28.62112925	     45.00000000	    -45.00000000	  -2240.52603190	  -4250.28537180	     20.70893154	   -161.39402212	      0.72641988	    172.43757209	     11.88703077	     12.95555825	    -14.63590811	    -45.00000000	    -33.03925564	     45.00000000	    -45.00000000	  -1341.99345567	    792.47524312	     24.04875702	     24.84413507	   1789.35206146	    403.97536603	     12.21197770	    -13.75538451
      8.20000000	     25.40670203	     34.31528307	     49.71346908	     72.94585849	    775.31506146	    -44.44247610	     12.89377306	     36.40153362	     28.69240946	     45.00000000	    -45.00000000	  -2240.70225959	  -4250.18719990	     20.63328902	   -160.90845603	      0.64124488	    173.21354210	     12.06112168	     12.90284373	    -14.57392666	    -45.00000000	    -33.02815331	     45.00000000	    -45.00000000	  -1342.10637171	    792.52879422	     23.87070707	     25.04434676	   1789.28639018	    403.80220102	     12.33490522	    -13.78391727
      8.21000000	     25.73926302	     34.34351907	     49.15931804	     71.77953807	    774.97736277	    -44.55303049	     12.91053110	     36.53613557	     28.60723872	     45.00000000	    -45.00000000	  -2240.62673468	  -4250.03211780	     20.54132041	   -160.36985914	      0.58241613	    173.76744149	     12.12914483	     12.92996435	    -14.64945113	    -45.00000000	    -33.18507962	     45.00000000	    -45.00000000	  -1342.13393654	    792.39203572	     23.90788375	     24.99466826	   1789.34158384	    403.74535813	     12.30664565	    -13.80633109
      8.22000000	     25.73797037	     34.47283495	     49.26240763	     70.47729523	    774.65065604	    -44.64585506	     13.01152778	     36.31197052	     28.57413382	     45.00000000	    -45.00000000	  -2240.84512921	  -4250.11026179	     20.54111176	   -160.25148710	      0.76847844	    174.11957413	     12.13260954	     12.88633695	    -14.59851353	    -45.00000000	    -33.02924634	     45.00000000	    -45.00000000	  -1341.94743725	    792.60219035	     23.88776089	     24.86465056	   1789.20596922	    403.77897384	     12.34219061	    -13.76287944
      8.23000000	     25.87695695	     34.55479806	     49.09076115	     69.04591140	    774.33184597	    -44.72057422	     13.01435193	     36.25942692	     28.45613698	     45.00000000	    -45.00000000	  -2240.92945380	  -4250.01022010	     20.54743787	   -159.84915424	      0.84713049	    174.41302751	     12.15443681	     12.84564932	    -14.55067457	    -45.00000000	    -33.00860525	     45.00000000	    -45.00000000	  -1341.84983288	    792.65821752	     23.87300904	     24.77513805	   1789.11226715	    403.85291551	     12.37345165	    -13.75575679
      8.24000000	     26.08788532	     34.57760460	     48.78492858	     67.49228102	    774.01952814	    -44.77639245	     12.90414765	     36.34602427	     28.46355249	     45.00000000	    -45.00000000	  -2241.05635217	  -4249.97370921	     20.44959771	   -159.38938263	      0.77403345	    174.61564410	     12.23057576	     12.82243895	    -14.56921211	    -45.00000000	    -33.01344733	     45.00000000	    -45.00000000	  -1341.78767933	    792.68490284	     23.85163466	     24.75870981	   1789.11697061	    403.94352645	     12.39722633	    -13.79227700
      8.25000000	     26.22901749	     34.66790144	     48.58236275	     65.82148219	    773.71413027	    -44.81181916	     13.02669052	     36.21918306	     28.29719921	     45.00000000	    -45.00000000	  -2241.10248215	  -4249.87227958	     20.47762692	   -159.07677686	      0.92772379	    174.72366316	     12.19866534	     12.83349179	    -14.51105618	    -45.00000000	    -33.08428162	     45.00000000	    -45.00000000	  -1341.70240996	    792.71453626	     23.80565160	     24.58591484	   1789.07018511	    404.07497513	     12.38612056	    -13.78912637
      8.26000000	     26.52252841	     34.67548818	     48.17534067	     64.04439190	    773.41881408	    -44.82490299	     12.78177381	     36.43937604	     28.38599433	     45.00000000	    -45.00000000	  -2241.27357393	  -4249.79868443	     20.32605922	   -158.55265557	      0.74037413	    174.82606246	     12.32227511	     12.78651750	    -14.56263470	    -45.00000000	    -33.06284005	     45.00000000	    -45.00000000	  -1341.63056706	    792.70929776	     23.80043046	     24.63886370	   1789.10513609	    404.19438522	     12.44247533	    -13.87273432
